HIERARCHY
ROOT joint_Root
{
	OFFSET 0.0 0.0 0.0
	CHANNELS 6 Xposition Yposition Zposition Zrotation Xrotation Yrotation 
	JOINT Hips
	{
		OFFSET 4.5925 91.4895 -427.239
		CHANNELS 6 Xposition Yposition Zposition Zrotation Xrotation Yrotation 
		JOINT Spine
		{
			OFFSET 15.7357 0.0 0.0
			CHANNELS 6 Xposition Yposition Zposition Zrotation Xrotation Yrotation 
			JOINT Chest
			{
				OFFSET 8.98455 -0.406207 0.0
				CHANNELS 6 Xposition Yposition Zposition Zrotation Xrotation Yrotation 
				JOINT Neck
				{
					OFFSET 16.3773 0.0 0.0
					CHANNELS 6 Xposition Yposition Zposition Zrotation Xrotation Yrotation 
					JOINT Head
					{
						OFFSET 6.45672 0.0 0.0
						CHANNELS 6 Xposition Yposition Zposition Zrotation Xrotation Yrotation 
						End Site
						{
							OFFSET 0.0 0.0 0.0
						}
					}
				}
				JOINT Shoulder_L
				{
					OFFSET 12.9942 -0.242716 4.98039
					CHANNELS 6 Xposition Yposition Zposition Zrotation Xrotation Yrotation 
					JOINT UpperArm_L
					{
						OFFSET 5.34809 0.0 0.0
						CHANNELS 6 Xposition Yposition Zposition Zrotation Xrotation Yrotation 
						JOINT LowerArm_L
						{
							OFFSET 24.3286 1.87007e-05 0.0
							CHANNELS 6 Xposition Yposition Zposition Zrotation Xrotation Yrotation 
							JOINT Hand_L
							{
								OFFSET 22.2916 0.0 0.0
								CHANNELS 6 Xposition Yposition Zposition Zrotation Xrotation Yrotation 
								End Site
								{
									OFFSET 0.0 0.0 0.0
								}
							}
						}
					}
				}
				JOINT Shoulder_R
				{
					OFFSET 12.9945 -0.242716 -4.98039
					CHANNELS 6 Xposition Yposition Zposition Zrotation Xrotation Yrotation 
					JOINT UpperArm_R
					{
						OFFSET -5.34813 0.0 0.0
						CHANNELS 6 Xposition Yposition Zposition Zrotation Xrotation Yrotation 
						JOINT LowerArm_R
						{
							OFFSET -24.3289 0.000322201 0.0
							CHANNELS 6 Xposition Yposition Zposition Zrotation Xrotation Yrotation 
							JOINT Hand_R
							{
								OFFSET -22.2915 -0.000108084 0.0
								CHANNELS 6 Xposition Yposition Zposition Zrotation Xrotation Yrotation 
								End Site
								{
									OFFSET 0.0 0.0 0.0
								}
							}
						}
					}
				}
			}
		}
		JOINT UpperLeg_L
		{
			OFFSET -2.19248 -6.46944 0.0
			CHANNELS 6 Xposition Yposition Zposition Zrotation Xrotation Yrotation 
			JOINT LowerLeg_L
			{
				OFFSET 39.0811 0.0 -1.23785e-05
				CHANNELS 6 Xposition Yposition Zposition Zrotation Xrotation Yrotation 
				JOINT Foot_L
				{
					OFFSET 40.9854 0.0 -1.26872e-05
					CHANNELS 6 Xposition Yposition Zposition Zrotation Xrotation Yrotation 
					JOINT Toes_L
					{
						OFFSET 11.7543 0.0 0.0
						CHANNELS 6 Xposition Yposition Zposition Zrotation Xrotation Yrotation 
						End Site
						{
							OFFSET 0.0 0.0 0.0
						}
					}
				}
			}
		}
		JOINT UpperLeg_R
		{
			OFFSET -2.19251 6.46944 0.0
			CHANNELS 6 Xposition Yposition Zposition Zrotation Xrotation Yrotation 
			JOINT LowerLeg_R
			{
				OFFSET -39.0811 -0.00228153 -0.0401928
				CHANNELS 6 Xposition Yposition Zposition Zrotation Xrotation Yrotation 
				JOINT Foot_R
				{
					OFFSET -40.9854 0.0 0.0
					CHANNELS 6 Xposition Yposition Zposition Zrotation Xrotation Yrotation 
					JOINT Toes_R
					{
						OFFSET -11.7543 0.0 0.0
						CHANNELS 6 Xposition Yposition Zposition Zrotation Xrotation Yrotation 
						End Site
						{
							OFFSET 0.0 0.0 0.0
						}
					}
				}
			}
		}
	}
}
MOTION
Frames:	8
Frame Time:	0.0333333
0.000000 0.000000 0.000000 0.000000 0.000000 -0.000000 -5.474870 90.946700 2.326870 90.073100 -1.436760 11.966600 15.735700 0.000005 -0.000001 84.426800 83.579000 -84.001700 8.984550 -0.406207 -0.000000 5.021110 -1.254840 0.904290 16.377300 -0.000001 -0.000001 34.059700 -3.305290 -1.166990 6.456720 -0.000001 -0.000000 17.786400 -1.775280 5.964330 12.994200 -0.242716 4.980390 -86.721500 -7.434440 -66.120200 5.348090 -0.000007 -0.000001 -68.607400 -51.995200 -93.680600 24.328600 0.000019 0.000005 16.896000 5.678640 -71.956400 22.291600 -0.000001 0.000005 23.261100 5.349450 -1.360860 12.994500 -0.242716 -4.980390 91.364100 -4.194980 -71.968500 -5.348130 -0.000001 -0.000004 -57.428300 -48.203000 -87.579600 -24.328900 0.000322 -0.000009 2.899030 1.103980 -69.180400 -22.291500 -0.000108 -0.000004 30.802400 5.516780 -7.225480 -2.192480 -6.469440 -0.000000 -170.213000 -13.918300 6.711250 39.081100 -0.000007 -0.000012 -0.231924 0.472883 26.125900 40.985400 -0.000006 -0.000013 -2.299110 10.112300 -69.576900 11.754300 -0.000000 0.000003 -0.000184 -0.001729 -16.642900 -2.192510 6.469440 -0.000001 171.895000 27.664300 -170.278000 -39.081100 -0.002282 -0.040193 -0.219152 0.453745 26.118100 -40.985400 0.000008 0.000006 6.592670 17.107400 -73.273900 -11.754300 -0.000006 -0.000006 -0.000427 -0.006903 -16.854200
0.000000 0.000000 0.000000 0.000000 0.000000 -0.000000 -5.559330 90.939400 2.402950 90.080600 -1.431260 11.896300 15.735700 0.000005 -0.000001 84.541700 83.598400 -84.103800 8.984550 -0.406207 -0.000000 4.984820 -1.226040 0.928076 16.377300 -0.000001 -0.000001 34.166300 -3.270120 -1.116190 6.456720 -0.000001 -0.000000 17.817300 -1.804240 5.849830 12.994200 -0.242716 4.980390 -86.697100 -7.451200 -66.010000 5.348090 -0.000007 -0.000001 -68.539800 -51.956300 -93.682400 24.328600 0.000019 0.000005 16.697900 5.587420 -72.017800 22.291600 -0.000001 0.000005 23.250400 5.352600 -1.455560 12.994500 -0.242716 -4.980390 91.394400 -4.254710 -71.835600 -5.348130 -0.000001 -0.000004 -57.648300 -48.318700 -87.959200 -24.328900 0.000322 -0.000009 2.859010 1.086330 -69.222400 -22.291500 -0.000108 -0.000004 30.776100 5.517950 -7.275060 -2.192480 -6.469440 -0.000000 -170.130000 -14.017300 6.722630 39.081100 -0.000007 -0.000012 -0.232465 0.475050 26.075100 40.985400 -0.000006 -0.000013 -2.348630 10.213200 -69.576300 11.754300 -0.000000 0.000003 -0.000192 -0.001789 -16.645100 -2.192510 6.469440 -0.000001 171.948000 27.688800 -170.266000 -39.081100 -0.002282 -0.040193 -0.221114 0.458643 26.073900 -40.985400 0.000008 0.000006 6.634330 17.091900 -73.332100 -11.754300 -0.000006 -0.000006 -0.000346 -0.005633 -16.802600
0.000000 0.000000 0.000000 0.000000 0.000000 -0.000000 -5.637310 90.927100 2.468730 90.102600 -1.396530 11.837300 15.735700 0.000005 -0.000001 84.514900 83.608400 -84.065800 8.984550 -0.406207 -0.000000 4.964620 -1.230460 0.950385 16.377300 -0.000001 -0.000001 34.255400 -3.262380 -1.140850 6.456720 -0.000001 -0.000000 17.806900 -1.830470 5.833610 12.994200 -0.242716 4.980390 -86.692400 -7.447470 -65.969200 5.348090 -0.000007 -0.000001 -68.081600 -52.105000 -93.292700 24.328600 0.000019 0.000005 16.667100 5.512900 -72.209200 22.291600 -0.000001 0.000005 23.209100 5.353960 -1.496600 12.994500 -0.242716 -4.980390 91.429700 -4.327700 -71.698500 -5.348130 -0.000001 -0.000004 -57.952300 -48.321300 -88.353400 -24.328900 0.000322 -0.000009 2.990940 1.129950 -69.332300 -22.291500 -0.000108 -0.000004 30.799700 5.516110 -7.197040 -2.192480 -6.469440 -0.000000 -170.128000 -13.926500 6.714510 39.081100 -0.000007 -0.000012 -0.231822 0.474369 26.044900 40.985400 -0.000006 -0.000013 -2.415410 10.200100 -69.596400 11.754300 -0.000000 0.000003 -0.000179 -0.001688 -16.641400 -2.192510 6.469440 -0.000001 171.989000 27.697500 -170.265000 -39.081100 -0.002282 -0.040193 -0.221800 0.460143 26.069000 -40.985400 0.000008 0.000006 6.668950 17.035700 -73.406700 -11.754300 -0.000006 -0.000006 -0.000303 -0.004955 -16.775100
0.000000 0.000000 0.000000 0.000000 0.000000 -0.000000 -5.716790 90.916700 2.529950 90.113400 -1.351530 11.771500 15.735700 0.000005 -0.000001 84.532100 83.617600 -84.083800 8.984550 -0.406207 -0.000000 4.946430 -1.224930 0.948457 16.377300 -0.000001 -0.000001 34.325500 -3.296630 -1.086050 6.456720 -0.000001 -0.000000 17.793900 -1.846380 5.852160 12.994200 -0.242716 4.980390 -86.673700 -7.469990 -65.912600 5.348090 -0.000007 -0.000001 -67.625200 -52.215500 -92.957100 24.328600 0.000019 0.000005 16.876000 5.527880 -72.383400 22.291600 -0.000001 0.000005 23.080200 5.352060 -1.439380 12.994500 -0.242716 -4.980390 91.451400 -4.351060 -71.532000 -5.348130 -0.000001 -0.000004 -58.420900 -48.170800 -88.785700 -24.328900 0.000322 -0.000009 2.948590 1.103980 -69.501500 -22.291500 -0.000108 -0.000004 30.914500 5.516320 -7.206010 -2.192480 -6.469440 -0.000000 -170.084000 -13.937100 6.688090 39.081100 -0.000007 -0.000012 -0.233624 0.478416 26.027900 40.985400 -0.000006 -0.000013 -2.466510 10.249700 -69.603500 11.754300 -0.000000 0.000003 -0.000182 -0.001709 -16.642200 -2.192510 6.469440 -0.000001 172.040000 27.729200 -170.280000 -39.081100 -0.002282 -0.040193 -0.225185 0.467217 26.061500 -40.985400 0.000008 0.000006 6.704230 16.984900 -73.466500 -11.754300 -0.000006 -0.000006 -0.000375 -0.006089 -16.821100
0.000000 0.000000 0.000000 0.000000 0.000000 -0.000000 -5.791750 90.903400 2.588770 90.126200 -1.307900 11.720800 15.735700 0.000005 -0.000001 84.447700 83.615700 -83.993000 8.984550 -0.406207 -0.000000 4.948690 -1.244140 0.962155 16.377300 -0.000001 -0.000001 34.336400 -3.322740 -1.092580 6.456720 -0.000001 -0.000000 17.811500 -1.904230 5.843070 12.994200 -0.242716 4.980390 -86.663900 -7.480720 -65.879900 5.348090 -0.000007 -0.000001 -67.355900 -52.309000 -92.740800 24.328600 0.000019 0.000005 16.866900 5.495910 -72.469300 22.291600 -0.000001 0.000005 23.046000 5.354410 -1.510140 12.994500 -0.242716 -4.980390 91.463700 -4.364340 -71.438800 -5.348130 -0.000001 -0.000004 -58.950000 -47.964200 -89.355300 -24.328900 0.000322 -0.000009 2.967640 1.107760 -69.558400 -22.291500 -0.000108 -0.000004 30.969600 5.516170 -7.199720 -2.192480 -6.469440 -0.000000 -170.050000 -13.905200 6.681690 39.081100 -0.000007 -0.000012 -0.234360 0.480212 26.014400 40.985400 -0.000006 -0.000013 -2.514130 10.301700 -69.626200 11.754300 -0.000000 0.000003 -0.000201 -0.001859 -16.647700 -2.192510 6.469440 -0.000001 172.086000 27.754800 -170.294000 -39.081100 -0.002282 -0.040193 -0.224686 0.465904 26.075700 -40.985400 0.000008 0.000006 6.746580 16.942300 -73.536500 -11.754300 -0.000006 -0.000006 -0.000431 -0.006965 -16.856700
0.000000 0.000000 0.000000 0.000000 0.000000 -0.000000 -5.859820 90.892400 2.632850 90.150100 -1.241910 11.700700 15.735700 0.000005 -0.000001 84.365800 83.619600 -83.899200 8.984550 -0.406207 -0.000000 4.939280 -1.261830 0.986503 16.377300 -0.000001 -0.000001 34.379900 -3.340570 -1.027350 6.456720 -0.000001 -0.000000 17.819000 -1.931390 5.735700 12.994200 -0.242716 4.980390 -86.660500 -7.504970 -65.926900 5.348090 -0.000007 -0.000001 -67.350800 -52.284100 -92.660100 24.328600 0.000019 0.000005 16.941800 5.497230 -72.542600 22.291600 -0.000001 0.000005 23.039000 5.355020 -1.528500 12.994500 -0.242716 -4.980390 91.477200 -4.406510 -71.446100 -5.348130 -0.000001 -0.000004 -59.417000 -47.784800 -89.844400 -24.328900 0.000322 -0.000009 2.989290 1.111500 -69.631500 -22.291500 -0.000108 -0.000004 30.945700 5.515960 -7.190950 -2.192480 -6.469440 -0.000000 -170.034000 -13.868700 6.682710 39.081100 -0.000007 -0.000012 -0.235280 0.482273 26.006200 40.985400 -0.000006 -0.000013 -2.561690 10.317800 -69.632400 11.754300 -0.000000 0.000003 -0.000186 -0.001740 -16.643300 -2.192510 6.469440 -0.000001 172.087000 27.807900 -170.268000 -39.081100 -0.002282 -0.040193 -0.226443 0.469261 26.087000 -40.985400 0.000008 0.000006 6.782290 16.906800 -73.600400 -11.754300 -0.000006 -0.000006 -0.000392 -0.006358 -16.832100
0.000000 0.000000 0.000000 0.000000 0.000000 -0.000000 -5.933440 90.885100 2.680770 90.140800 -1.174460 11.661800 15.735700 0.000005 -0.000001 84.367600 83.615100 -83.882400 8.984550 -0.406207 -0.000000 4.948550 -1.262730 1.023800 16.377300 -0.000001 -0.000001 34.390100 -3.370240 -1.049120 6.456720 -0.000001 -0.000000 17.793200 -1.954710 5.832740 12.994200 -0.242716 4.980390 -86.661700 -7.499180 -65.918600 5.348090 -0.000007 -0.000001 -67.689800 -52.117100 -92.957800 24.328600 0.000019 0.000005 16.917600 5.504240 -72.496800 22.291600 -0.000001 0.000005 23.131600 5.354650 -1.517350 12.994500 -0.242716 -4.980390 91.490000 -4.435130 -71.408500 -5.348130 -0.000001 -0.000004 -59.945600 -47.575900 -90.406400 -24.328900 0.000322 -0.000009 3.057870 1.135730 -69.653200 -22.291500 -0.000108 -0.000004 30.942400 5.515000 -7.150300 -2.192480 -6.469440 -0.000000 -169.954000 -13.882100 6.675980 39.081100 -0.000007 -0.000012 -0.236592 0.485402 25.985700 40.985400 -0.000006 -0.000013 -2.599270 10.434400 -69.629400 11.754300 -0.000000 0.000003 -0.000193 -0.001793 -16.645300 -2.192510 6.469440 -0.000001 172.151000 27.861200 -170.254000 -39.081100 -0.002282 -0.040193 -0.223120 0.463073 26.057600 -40.985400 0.000008 0.000006 6.821370 16.867600 -73.639700 -11.754300 -0.000006 -0.000006 -0.000334 -0.005441 -16.794800
0.000000 0.000000 0.000000 0.000000 0.000000 -0.000000 -5.992650 90.877000 2.730190 90.180800 -1.124780 11.639700 15.735700 0.000005 -0.000001 84.416600 83.613000 -83.930800 8.984550 -0.406207 -0.000000 4.953830 -1.252290 1.024670 16.377300 -0.000001 -0.000001 34.398100 -3.382000 -0.986943 6.456720 -0.000001 -0.000000 17.745800 -1.965880 5.788330 12.994200 -0.242716 4.980390 -86.658100 -7.512670 -65.933600 5.348090 -0.000007 -0.000001 -68.077100 -51.942600 -93.258100 24.328600 0.000019 0.000005 16.849600 5.489150 -72.471500 22.291600 -0.000001 0.000005 23.128000 5.353640 -1.486900 12.994500 -0.242716 -4.980390 91.494100 -4.456900 -71.445900 -5.348130 -0.000001 -0.000004 -60.295300 -47.453100 -90.829100 -24.328900 0.000322 -0.000009 3.122120 1.157890 -69.681200 -22.291500 -0.000108 -0.000004 30.959800 5.514050 -7.110630 -2.192480 -6.469440 -0.000000 -169.980000 -13.794100 6.702570 39.081100 -0.000007 -0.000012 -0.235267 0.483707 25.937900 40.985400 -0.000006 -0.000013 -2.656760 10.394500 -69.631900 11.754300 -0.000000 0.000003 -0.000180 -0.001693 -16.641600 -2.192510 6.469440 -0.000001 172.101000 27.958600 -170.196000 -39.081100 -0.002282 -0.040193 -0.226375 0.469945 26.047300 -40.985400 0.000008 0.000006 6.849510 16.862400 -73.704100 -11.754300 -0.000006 -0.000006 -0.000336 -0.005471 -16.796000
